<svg width="497" height="103" viewBox="0 0 497 103" fill="none" xmlns="http://www.w3.org/2000/svg">
<path d="M83.7201 100.044H56.5233C55.074 96.5092 53.6276 92.9806 52.1813 89.452C44.6544 71.0917 37.1245 52.7314 29.6189 34.3621C29.4758 34.0125 29.4697 33.5171 29.5976 33.1646C33.5498 22.3934 37.5294 11.6283 41.503 0.866194C41.5852 0.641287 41.6857 0.41942 41.8592 0C55.8474 33.4351 69.7654 66.6908 83.7201 100.041V100.044Z" fill="white"/>
<path d="M-0.000234507 100.044H2.81627C16.2776 67.8701 29.7055 35.7814 43.1973 3.53468C42.8715 2.64417 42.5426 1.7567 42.2138 0.866194C42.1316 0.641287 42.0311 0.422459 41.8575 0C27.8694 33.4351 13.9544 66.6939 -0.000234507 100.044Z" fill="white"/>
<g clip-path="url(#clip0_2448_813)">
<path d="M2.72095 100.041H5.53745C18.9988 67.8676 32.4267 35.779 45.9185 3.53224C45.5927 2.64173 45.2638 1.75426 44.935 0.863752C44.8528 0.638846 44.7523 0.420018 44.5787 -0.00244141C30.5906 33.4326 16.6756 66.6914 2.72095 100.041Z" fill="white"/>
</g>
<path d="M127.748 100.054H104.259V0.0151367H127.748V100.054Z" fill="white"/>
<path d="M145.722 49.9835C149.002 50.5312 152.313 50.9327 155.553 51.664C161.347 52.9741 166.699 55.2831 171.402 59.0423C174.921 61.8586 177.006 65.4933 178.189 69.7349C179.356 73.9359 179.62 78.2522 179.757 82.5777C179.878 86.4614 179.866 90.3513 180.106 94.2287C180.218 96.0367 180.681 97.8479 181.173 99.603C181.543 100.929 182.527 101.84 183.915 102.391C183.438 102.45 182.965 102.531 182.489 102.559C177.744 102.846 173.085 102.575 168.563 100.863C163.068 98.7814 159.978 94.7546 158.758 89.1532C158.011 85.7239 157.784 82.2354 157.666 78.7376C157.563 75.7097 157.522 72.6756 157.345 69.6508C157.189 66.9341 156.85 64.2205 155.789 61.6812C154.659 58.977 152.584 57.0009 150.437 55.1089C147.879 52.8558 144.978 51.1879 141.639 50.164C141.748 50.0676 141.804 49.9742 141.879 49.9555C145.311 49.0593 147.742 46.8498 149.621 43.9682C151.964 40.3771 153.041 36.3347 153.57 32.1367C154.137 27.6493 154.233 23.1495 153.623 18.6528C153.122 14.9745 152.105 11.4487 150.119 8.2808C147.34 3.84632 143.401 1.03627 138.204 0C140.426 0.217834 142.657 0.360982 144.866 0.672173C150.906 1.51861 156.76 3.01544 162.14 5.99354C166.556 8.4364 170.132 11.7195 172.229 16.4122C173.807 19.9474 174.255 23.6723 173.941 27.5C173.735 29.9864 173.297 32.423 172.36 34.757C170.34 39.7951 166.802 43.4423 162.035 45.9194C157.298 48.3809 152.198 49.5603 146.901 49.9555C146.497 49.9867 146.092 50.0458 145.688 50.0925C145.7 50.0551 145.713 50.0209 145.725 49.9835H145.722Z" fill="white"/>
<path d="M241.129 0.0119264C241.084 0.131187 241.078 0.295171 240.994 0.363746C239.077 1.95886 237.849 4.05785 236.787 6.25225C234.34 11.3 233.049 16.6965 232.148 22.1945C230.094 34.7437 229.918 47.3853 230.398 60.0508C230.663 67.0962 231.334 74.1087 232.748 81.0288C233.788 86.1243 235.174 91.1064 237.795 95.6621C238.651 97.1499 239.581 98.584 240.929 99.6961C241.033 99.7826 241.06 99.9615 241.123 100.099L241.129 100.105C239.545 99.398 237.941 98.7301 236.379 97.9818C228.648 94.2757 221.862 89.2966 216.248 82.8028C210.645 76.324 206.919 68.8702 205.38 60.4384C203.645 50.9274 204.292 41.5654 207.789 32.4777C210.109 26.4521 213.514 21.1062 217.864 16.3507C224.28 9.33813 231.954 4.10257 240.625 0.277282C240.804 0.199762 240.971 0.0924272 241.143 0L241.138 0.0149074L241.129 0.0119264Z" fill="white"/>
<path d="M266.468 0.0219727C271.519 2.15972 276.248 4.86695 280.663 8.11681C287.536 13.1735 293.215 19.3035 297.309 26.8229C300.025 31.811 301.796 37.139 302.625 42.7651C303.94 51.6798 303.165 60.3918 299.906 68.8206C297.634 74.7002 294.247 79.9029 289.93 84.4855C283.528 91.2774 275.902 96.2775 267.267 99.7718C266.984 99.8851 266.659 99.9 266.355 99.9626L266.337 99.9835C267.211 99.0801 268.206 98.2691 268.934 97.2614C271.265 94.0175 272.607 90.3114 273.722 86.51C275.276 81.2088 276.101 75.7735 276.704 70.2965C277.741 60.8272 277.852 51.328 277.55 41.8259C277.282 33.3882 276.546 24.9892 274.584 16.7483C273.549 12.3983 272.24 8.13172 269.9 4.2617C269.011 2.79181 268.016 1.40242 266.647 0.326088C266.569 0.263476 266.537 0.141234 266.483 0.0488064L266.468 0.030918V0.0219727Z" fill="white"/>
<path d="M241.137 0C241.153 0.0185294 241.165 0.0432353 241.184 0.0494118C241.196 0.0525 241.217 0.0308823 241.233 0.0216176C241.199 0.0216176 241.165 0.0185292 241.128 0.015441L241.134 0H241.137Z" fill="white"/>
<path d="M241.116 100.097C241.162 100.088 241.208 100.076 241.258 100.066C241.212 100.079 241.168 100.091 241.122 100.106L241.116 100.1V100.097Z" fill="white"/>
<path d="M266.485 0.0404254L266.429 0.0496512C266.429 0.0496512 266.469 0.025048 266.469 0.0219727L266.485 0.0373505V0.0404254Z" fill="white"/>
<path d="M266.359 99.9565C266.359 99.975 266.359 99.9965 266.359 100.015C266.353 100.003 266.346 99.9904 266.34 99.9781L266.359 99.9565Z" fill="white"/>
<path d="M407.493 100.044H380.296C378.846 96.5092 377.4 92.9806 375.954 89.452C368.427 71.0917 360.897 52.7314 353.391 34.3621C353.248 34.0125 353.242 33.5171 353.37 33.1646C357.322 22.3934 361.302 11.6283 365.275 0.866194C365.358 0.641287 365.458 0.41942 365.632 0C379.62 33.4351 393.538 66.6908 407.493 100.041V100.044Z" fill="white"/>
<path d="M323.772 100.044H326.589C340.05 67.8701 353.478 35.7814 366.97 3.53468C366.644 2.64417 366.315 1.7567 365.986 0.866194C365.904 0.641287 365.804 0.422459 365.63 0C351.642 33.4351 337.727 66.6939 323.772 100.044Z" fill="white"/>
<g clip-path="url(#clip1_2448_813)">
<path d="M326.493 100.041H329.309C342.771 67.8676 356.199 35.779 369.69 3.53224C369.365 2.64173 369.036 1.75426 368.707 0.863752C368.625 0.638846 368.524 0.420018 368.351 -0.00244141C354.363 33.4326 340.448 66.6914 326.493 100.041Z" fill="white"/>
</g>
<path d="M428.086 0.0155593C428.82 0.0155593 429.468 0.0155593 430.112 0.0155593C436.202 0.0155593 442.295 0.0248953 448.385 0C448.976 0 449.319 0.199162 449.655 0.662837C464.993 21.8487 480.344 43.0284 495.68 64.2143C495.92 64.5473 496.125 64.9985 496.128 65.3937C496.153 77.5426 496.147 89.6915 496.147 101.84V102.472C495.842 102.093 495.658 101.875 495.487 101.651C482.159 84.1617 468.827 66.6758 455.499 49.1838C446.487 37.3585 437.478 25.5364 428.478 13.7018C428.26 13.4123 428.052 13.0202 428.052 12.6748C428.024 8.63244 428.033 4.59318 428.036 0.550809C428.036 0.401437 428.061 0.252065 428.086 0.00933536V0.0155593Z" fill="white"/>
<rect x="428.032" y="8.75049" width="5.71571" height="91.4674" fill="white"/>
<rect x="490.431" width="5.71571" height="91.4674" fill="white"/>
<defs>
<clipPath id="clip0_2448_813">
<rect width="43.2371" height="85.0997" fill="white" transform="translate(2.66895 15.0034)"/>
</clipPath>
<clipPath id="clip1_2448_813">
<rect width="43.2371" height="85.0997" fill="white" transform="translate(326.441 15.0034)"/>
</clipPath>
</defs>
</svg>
